<mxfile host="app.diagrams.net" modified="2022-03-19T13:40:06.063Z" agent="5.0 (X11; Linux x86_64) AppleWebKit/537.36 (KHTML, like Gecko) Chrome/98.0.4758.102 Safari/537.36" etag="e0ONW0yULeriWKHp-e0B" version="17.1.3" type="github">
  <diagram id="C5RBs43oDa-KdzZeNtuy" name="Page-1">
    <mxGraphModel dx="1355" dy="773" grid="1" gridSize="10" guides="1" tooltips="1" connect="1" arrows="1" fold="1" page="1" pageScale="1" pageWidth="827" pageHeight="1169" math="0" shadow="0">
      <root>
        <mxCell id="WIyWlLk6GJQsqaUBKTNV-0" />
        <mxCell id="WIyWlLk6GJQsqaUBKTNV-1" parent="WIyWlLk6GJQsqaUBKTNV-0" />
        <mxCell id="qycr42Sm1vg8uZ2QVunI-2" style="edgeStyle=orthogonalEdgeStyle;rounded=0;orthogonalLoop=1;jettySize=auto;html=1;exitX=0.5;exitY=1;exitDx=0;exitDy=0;" edge="1" parent="WIyWlLk6GJQsqaUBKTNV-1" source="qycr42Sm1vg8uZ2QVunI-0" target="qycr42Sm1vg8uZ2QVunI-1">
          <mxGeometry relative="1" as="geometry" />
        </mxCell>
        <mxCell id="qycr42Sm1vg8uZ2QVunI-0" value="Enter Homepage" style="rounded=0;whiteSpace=wrap;html=1;" vertex="1" parent="WIyWlLk6GJQsqaUBKTNV-1">
          <mxGeometry x="40" y="40" width="120" height="60" as="geometry" />
        </mxCell>
        <mxCell id="qycr42Sm1vg8uZ2QVunI-5" style="edgeStyle=orthogonalEdgeStyle;rounded=0;orthogonalLoop=1;jettySize=auto;html=1;exitX=1;exitY=0.5;exitDx=0;exitDy=0;entryX=0;entryY=0.5;entryDx=0;entryDy=0;" edge="1" parent="WIyWlLk6GJQsqaUBKTNV-1" source="qycr42Sm1vg8uZ2QVunI-1" target="qycr42Sm1vg8uZ2QVunI-3">
          <mxGeometry relative="1" as="geometry" />
        </mxCell>
        <mxCell id="qycr42Sm1vg8uZ2QVunI-6" style="edgeStyle=orthogonalEdgeStyle;rounded=0;orthogonalLoop=1;jettySize=auto;html=1;exitX=0.5;exitY=1;exitDx=0;exitDy=0;entryX=0.5;entryY=0;entryDx=0;entryDy=0;" edge="1" parent="WIyWlLk6GJQsqaUBKTNV-1" source="qycr42Sm1vg8uZ2QVunI-1" target="qycr42Sm1vg8uZ2QVunI-4">
          <mxGeometry relative="1" as="geometry" />
        </mxCell>
        <mxCell id="qycr42Sm1vg8uZ2QVunI-1" value="isLoggedIn" style="rhombus;whiteSpace=wrap;html=1;" vertex="1" parent="WIyWlLk6GJQsqaUBKTNV-1">
          <mxGeometry x="60" y="140" width="80" height="80" as="geometry" />
        </mxCell>
        <mxCell id="qycr42Sm1vg8uZ2QVunI-11" value="" style="edgeStyle=orthogonalEdgeStyle;rounded=0;orthogonalLoop=1;jettySize=auto;html=1;" edge="1" parent="WIyWlLk6GJQsqaUBKTNV-1" source="qycr42Sm1vg8uZ2QVunI-3" target="qycr42Sm1vg8uZ2QVunI-7">
          <mxGeometry relative="1" as="geometry" />
        </mxCell>
        <mxCell id="qycr42Sm1vg8uZ2QVunI-3" value="click add deck" style="whiteSpace=wrap;html=1;aspect=fixed;" vertex="1" parent="WIyWlLk6GJQsqaUBKTNV-1">
          <mxGeometry x="210" y="140" width="80" height="80" as="geometry" />
        </mxCell>
        <mxCell id="qycr42Sm1vg8uZ2QVunI-13" value="" style="edgeStyle=orthogonalEdgeStyle;rounded=0;orthogonalLoop=1;jettySize=auto;html=1;" edge="1" parent="WIyWlLk6GJQsqaUBKTNV-1" source="qycr42Sm1vg8uZ2QVunI-4" target="qycr42Sm1vg8uZ2QVunI-12">
          <mxGeometry relative="1" as="geometry" />
        </mxCell>
        <mxCell id="qycr42Sm1vg8uZ2QVunI-4" value="click access link" style="whiteSpace=wrap;html=1;aspect=fixed;" vertex="1" parent="WIyWlLk6GJQsqaUBKTNV-1">
          <mxGeometry x="60" y="260" width="80" height="80" as="geometry" />
        </mxCell>
        <mxCell id="qycr42Sm1vg8uZ2QVunI-10" value="" style="edgeStyle=orthogonalEdgeStyle;rounded=0;orthogonalLoop=1;jettySize=auto;html=1;" edge="1" parent="WIyWlLk6GJQsqaUBKTNV-1" source="qycr42Sm1vg8uZ2QVunI-7" target="qycr42Sm1vg8uZ2QVunI-8">
          <mxGeometry relative="1" as="geometry" />
        </mxCell>
        <mxCell id="qycr42Sm1vg8uZ2QVunI-7" value="fill deck" style="whiteSpace=wrap;html=1;aspect=fixed;" vertex="1" parent="WIyWlLk6GJQsqaUBKTNV-1">
          <mxGeometry x="334" y="140" width="80" height="80" as="geometry" />
        </mxCell>
        <mxCell id="qycr42Sm1vg8uZ2QVunI-8" value="done!" style="whiteSpace=wrap;html=1;aspect=fixed;" vertex="1" parent="WIyWlLk6GJQsqaUBKTNV-1">
          <mxGeometry x="470" y="140" width="80" height="80" as="geometry" />
        </mxCell>
        <mxCell id="qycr42Sm1vg8uZ2QVunI-15" style="edgeStyle=orthogonalEdgeStyle;rounded=0;orthogonalLoop=1;jettySize=auto;html=1;exitX=1;exitY=0.5;exitDx=0;exitDy=0;entryX=0;entryY=0.5;entryDx=0;entryDy=0;" edge="1" parent="WIyWlLk6GJQsqaUBKTNV-1" source="qycr42Sm1vg8uZ2QVunI-12" target="qycr42Sm1vg8uZ2QVunI-14">
          <mxGeometry relative="1" as="geometry">
            <mxPoint x="300" y="300" as="targetPoint" />
          </mxGeometry>
        </mxCell>
        <mxCell id="qycr42Sm1vg8uZ2QVunI-18" value="" style="edgeStyle=orthogonalEdgeStyle;rounded=0;orthogonalLoop=1;jettySize=auto;html=1;" edge="1" parent="WIyWlLk6GJQsqaUBKTNV-1" source="qycr42Sm1vg8uZ2QVunI-12" target="qycr42Sm1vg8uZ2QVunI-17">
          <mxGeometry relative="1" as="geometry" />
        </mxCell>
        <mxCell id="qycr42Sm1vg8uZ2QVunI-12" value="hasAccount" style="rhombus;whiteSpace=wrap;html=1;" vertex="1" parent="WIyWlLk6GJQsqaUBKTNV-1">
          <mxGeometry x="210" y="260" width="80" height="80" as="geometry" />
        </mxCell>
        <mxCell id="qycr42Sm1vg8uZ2QVunI-16" style="edgeStyle=orthogonalEdgeStyle;rounded=0;orthogonalLoop=1;jettySize=auto;html=1;entryX=0;entryY=0.5;entryDx=0;entryDy=0;" edge="1" parent="WIyWlLk6GJQsqaUBKTNV-1" source="qycr42Sm1vg8uZ2QVunI-14" target="qycr42Sm1vg8uZ2QVunI-0">
          <mxGeometry relative="1" as="geometry">
            <Array as="points">
              <mxPoint x="550" y="540" />
              <mxPoint x="20" y="540" />
              <mxPoint x="20" y="70" />
            </Array>
          </mxGeometry>
        </mxCell>
        <mxCell id="qycr42Sm1vg8uZ2QVunI-14" value="login" style="whiteSpace=wrap;html=1;aspect=fixed;" vertex="1" parent="WIyWlLk6GJQsqaUBKTNV-1">
          <mxGeometry x="510" y="260" width="80" height="80" as="geometry" />
        </mxCell>
        <mxCell id="qycr42Sm1vg8uZ2QVunI-19" style="edgeStyle=orthogonalEdgeStyle;rounded=0;orthogonalLoop=1;jettySize=auto;html=1;entryX=0;entryY=0.75;entryDx=0;entryDy=0;" edge="1" parent="WIyWlLk6GJQsqaUBKTNV-1" source="qycr42Sm1vg8uZ2QVunI-17" target="qycr42Sm1vg8uZ2QVunI-0">
          <mxGeometry relative="1" as="geometry">
            <Array as="points">
              <mxPoint x="250" y="470" />
              <mxPoint x="20" y="470" />
              <mxPoint x="20" y="85" />
            </Array>
          </mxGeometry>
        </mxCell>
        <mxCell id="qycr42Sm1vg8uZ2QVunI-17" value="create Account" style="whiteSpace=wrap;html=1;" vertex="1" parent="WIyWlLk6GJQsqaUBKTNV-1">
          <mxGeometry x="190" y="380" width="120" height="60" as="geometry" />
        </mxCell>
      </root>
    </mxGraphModel>
  </diagram>
</mxfile>
